<?xml version="1.0" encoding="utf-8"?>
<!-- Generator: Adobe Illustrator 21.1.0, SVG Export Plug-In . SVG Version: 6.00 Build 0)  -->
<svg version="1.1" id="Capa_1" xmlns="http://www.w3.org/2000/svg" xmlns:xlink="http://www.w3.org/1999/xlink" x="0px" y="0px"
	 viewBox="0 0 2000 2000" style="enable-background:new 0 0 2000 2000;" xml:space="preserve">
<style type="text/css">
	.st0{fill:#566E3A;}
	.st1{fill:#AACC05;}
</style>
<g>
	<path class="st0" d="M1423.2,353.8c44.6,326.9-352.8,400.4,61,755.7c74.8-143,61.9-299.3,25.4-476.3
		c96.6,243.8,64.5,483.4-123.4,671.3c-114,114-271.5,184.5-445.5,184.5c-174,0-331.5-70.5-445.5-184.5
		c-35.2-35.2-66.3-74.6-92.4-117.2c5,5.5,10.1,10.8,15.4,16.1c87.2,87.2,207.8,141.2,340.9,141.2c133.1,0,253.7-54,340.9-141.2
		c87.2-87.2,141.2-207.8,141.2-340.9c0-133.1-54-253.6-141.2-340.9c-87.2-87.2-207.8-141.2-340.9-141.2
		c-133.1,0-253.6,54-340.9,141.2c-9.6,9.6-18.8,19.6-27.5,29.9c28.4-50.8,63.7-97.2,104.5-138c114-114,271.5-184.5,445.5-184.5
		c155.1,0,297,56,406.8,148.9c21.3,18.1,55-17.1,32.6-36.2C1261.7,241,1108.3,180.3,940.7,180.3c-187.4,0-357.1,76-479.9,198.8
		C338,501.9,262,671.6,262,859c0,187.4,76,357.1,198.8,479.9c122.8,122.8,292.5,198.8,479.9,198.8c187.4,0,357.1-76,479.9-198.8
		c73.2-73.2,129.8-163.1,163.5-263.4C1725.2,976,1906.8,736.5,1423.2,353.8z M452.7,556c78.4-78.4,186.8-126.9,306.5-126.9
		c119.7,0,228,48.5,306.4,126.9c78.4,78.4,126.9,186.8,126.9,306.5c0,119.7-48.5,228-126.9,306.5
		c-78.4,78.4-186.8,126.9-306.4,126.9c-119.7,0-228-48.5-306.5-126.9c-78.4-78.4-126.9-186.8-126.9-306.5
		C325.7,742.8,374.2,634.4,452.7,556z"/>
	<polygon class="st1" points="1027.1,772.4 852.6,772.4 852.6,597.9 671.7,597.9 671.7,772.4 497.2,772.4 497.2,953.4 671.7,953.4 
		671.7,1127.9 852.6,1127.9 852.6,953.4 1027.1,953.4 	"/>
</g>
<g>
	<path d="M333.5,1699.7v6.8h-53.5v50.1h53.5v6.8h-53.5v50.1h53.5v6.8h-60.2v-120.5H333.5z"/>
	<path d="M493.5,1801l5.1,4.6c-11.7,10.7-25.6,16-41.5,16c-17.1,0-31.6-6-43.6-18c-12-12-18-26.6-18-43.6c0-17,6-31.6,18-43.6
		c12-12,26.6-18.1,43.6-18.1c15.9,0,29.7,5.3,41.5,16l-5.1,4.7c-10.3-9.2-22.5-13.8-36.4-13.8c-15.1,0-28,5.3-38.7,16
		s-16,23.6-16,38.7c0,15.2,5.3,28.1,16,38.8s23.6,16,38.7,16C471.1,1814.8,483.2,1810.2,493.5,1801z"/>
	<path d="M656,1716.1c12.1,12.1,18.1,26.6,18.1,43.7s-6,31.6-18.1,43.7c-12.1,12.1-26.6,18.1-43.7,18.1c-17.1,0-31.6-6-43.7-18.1
		c-12.1-12.1-18.1-26.6-18.1-43.7s6-31.6,18.1-43.7c12.1-12.1,26.6-18.1,43.7-18.1C629.3,1698,643.9,1704,656,1716.1z M612.2,1704.9
		c-15.2,0-28.1,5.4-38.8,16.1c-10.7,10.7-16.1,23.7-16.1,38.8c0,15.2,5.4,28.1,16.1,38.9c10.7,10.7,23.7,16.1,38.8,16.1
		c15.2,0,28.1-5.4,38.8-16.1c10.7-10.7,16.1-23.7,16.1-38.9c0-15.2-5.4-28.1-16.1-38.8C640.3,1710.2,627.4,1704.9,612.2,1704.9z"/>
	<path d="M834.1,1801l5.1,4.6c-11.7,10.7-25.6,16-41.5,16c-17.1,0-31.6-6-43.6-18c-12-12-18-26.6-18-43.6c0-17,6-31.6,18-43.6
		c12-12,26.6-18.1,43.6-18.1c15.9,0,29.7,5.3,41.5,16l-5.1,4.7c-10.3-9.2-22.5-13.8-36.4-13.8c-15.1,0-28,5.3-38.7,16
		s-16,23.6-16,38.7c0,15.2,5.3,28.1,16,38.8s23.6,16,38.7,16C811.6,1814.8,823.7,1810.2,834.1,1801z"/>
	<path d="M901.2,1820.2v-120.5h6.8v113.7h46.7v6.8H901.2z"/>
	<path d="M1023.7,1699.7v120.5h-6.8v-120.5H1023.7z"/>
	<path d="M1094.7,1699.7h7.5l61.9,107.2v-107.2h6.8v120.5h-6.8l-62.6-108.2v108.2h-6.8V1699.7z"/>
	<path d="M1248.5,1699.7v120.5h-6.8v-120.5H1248.5z"/>
	<path d="M1413.5,1801l5.1,4.6c-11.7,10.7-25.6,16-41.5,16c-17.1,0-31.6-6-43.6-18c-12-12-18-26.6-18-43.6c0-17,6-31.6,18-43.6
		c12-12,26.6-18.1,43.6-18.1c15.9,0,29.7,5.3,41.5,16l-5.1,4.7c-10.3-9.2-22.5-13.8-36.4-13.8c-15.1,0-28,5.3-38.7,16
		s-16,23.6-16,38.7c0,15.2,5.3,28.1,16,38.8s23.6,16,38.7,16C1391.1,1814.8,1403.2,1810.2,1413.5,1801z"/>
	<path d="M1540.5,1774h-41.7l-16.8,46.2h-7.2l44.9-123.3l44.8,123.3h-7.2L1540.5,1774z M1538,1767.2l-18.4-50.5l-18.4,50.5H1538z"/>
	<path d="M1654.2,1753.5c-8.6-2.9-15.4-6.8-20.3-11.7s-7.5-11-7.5-18.1c0-6.9,2.5-12.9,7.5-17.9c5-5,11-7.5,18.1-7.5
		c7,0,13.1,2.5,18.1,7.5c2.8,2.7,4.7,5.6,5.7,9l-6.1,2.4c-0.9-2.5-2.4-4.7-4.4-6.8c-3.7-3.6-8.1-5.4-13.3-5.4
		c-5.2,0-9.6,1.8-13.3,5.5c-3.7,3.6-5.5,8.1-5.5,13.3c0,5.2,1.8,9.6,5.5,13.3c3.4,3.4,8.1,6.5,14.2,9.3c9.6,3.1,17.7,8,24.3,14.5
		c7,6.9,10.5,15.3,10.5,25.2c0,9.9-3.5,18.3-10.5,25.3s-15.4,10.5-25.2,10.5c-9.8,0-18.3-3.5-25.2-10.5c-5.6-5.6-8.9-12-10-19.4
		l6.4-2.3c0.7,6.5,3.5,12.2,8.4,17.1c5.7,5.7,12.5,8.5,20.5,8.5c8,0,14.9-2.8,20.6-8.5c5.7-5.7,8.5-12.5,8.5-20.6
		c0-8-2.8-14.8-8.5-20.5C1667.5,1760.4,1661.4,1756.4,1654.2,1753.5z"/>
</g>
</svg>
